<?xml version="1.0" encoding="UTF-8"?>
<!-- Generated by Pixelmator Pro 3.1.1 -->
<svg width="1138" height="255" viewBox="0 0 1138 255" xmlns="http://www.w3.org/2000/svg" xmlns:xlink="http://www.w3.org/1999/xlink">
    <path id="Shape" fill="#ffffff" fill-rule="evenodd" stroke="none" d="M 132.5 254.360641 C 127.550003 254.608032 119.305473 254.418076 114.178841 253.938522 C 109.0522 253.458969 100.56234 251.92337 95.312492 250.526062 C 90.062645 249.128754 83.07209 246.896866 79.777931 245.566299 C 76.483772 244.235718 70.123627 241.036591 65.644279 238.457123 C 61.164925 235.877655 54.349998 231.391113 50.5 228.487061 C 46.650002 225.582993 40.276714 219.897888 36.337139 215.85347 C 32.397568 211.809067 26.654776 204.957825 23.575382 200.62851 C 20.495987 196.299194 16.179588 189.099213 13.983383 184.62851 C 11.787178 180.157837 8.89205 173.316315 7.549765 169.425125 C 6.207479 165.533936 4.15047 157.658936 2.978633 151.925125 C 1.475024 144.567932 0.833875 137.674316 0.799954 128.5 C 0.771517 120.809082 1.40705 111.769058 2.35614 106.364319 C 3.238479 101.339691 5.138128 93.464691 6.577583 88.864319 C 8.017037 84.263947 11.169646 76.529343 13.58338 71.676331 C 15.997112 66.823318 20.105684 59.623306 22.713539 55.676331 C 25.321392 51.729355 31.966795 44 37.481102 38.5 C 42.995407 33 51.080559 26.050049 55.448101 23.055664 C 59.815647 20.061279 67.014046 15.833237 71.444542 13.660019 C 75.875046 11.486786 82.440643 8.68013 86.034767 7.422989 C 89.628891 6.165848 96.54538 4.318878 101.404739 3.318634 C 107.947098 1.971954 114.719124 1.5 127.5 1.5 C 140.280869 1.5 147.052902 1.971954 153.595261 3.318634 C 158.45462 4.318878 165.371109 6.18161 168.965225 7.458008 C 172.559357 8.734421 178.425003 11.115479 182 12.749268 C 185.574997 14.383041 192.774994 18.566986 198 22.046921 C 203.644699 25.806366 211.558212 32.459869 217.5 38.442093 C 223 43.979523 229.684204 51.797424 232.35379 55.815231 C 235.023376 59.833023 238.966766 66.58075 241.116867 70.81015 C 243.266968 75.039566 246.372345 82.674393 248.017715 87.776443 C 249.663071 92.878494 251.73996 101.203491 252.633026 106.276443 C 253.597855 111.757172 254.240692 120.775269 254.217163 128.5 C 254.188995 137.748627 253.559052 144.508347 252.034164 151.925125 C 250.855286 157.658936 248.792526 165.533936 247.450241 169.425125 C 246.107956 173.316315 243.219421 180.144501 241.031296 184.598877 C 238.84317 189.053284 234.383926 196.431519 231.121857 200.994965 C 227.859802 205.558426 222.110397 212.426498 218.345413 216.257355 C 214.580444 220.088226 209.024994 225.135208 206 227.4729 C 202.975006 229.810577 197.350006 233.65564 193.5 236.017487 C 189.649994 238.379318 183.350006 241.798706 179.5 243.616135 C 175.649994 245.433548 168.484451 248.071442 163.576569 249.478104 C 158.668686 250.884766 151.69368 252.457596 148.076569 252.973267 C 144.459457 253.488937 137.449997 254.113251 132.5 254.360641 Z M 96.607269 184 C 128.930283 106.887497 138.524658 83.699051 138.781647 82.720108 C 139.215073 81.069046 138.281113 80.96048 125.87838 81.220108 L 112.507858 81.5 L 100.003929 114.153015 C 93.12677 132.112167 87.24115 146.646729 86.924782 146.452011 C 86.608406 146.257309 80.758408 131.458923 73.924782 113.566696 L 61.5 81.0354 L 48.25 81.0177 C 40.962502 81.007965 34.993683 81.337494 34.985966 81.75 C 34.978245 82.162506 44.537594 105.337494 56.228958 133.25 L 77.485992 184 L 87.046631 184 Z M 167 184 L 167 146 L 177.394669 146 C 185.119614 146 189.530472 145.462219 194.568558 143.906113 C 200.186478 142.170914 202.330582 140.829407 207.084991 136.075012 C 211.471069 131.688934 213.196396 129.077759 214.411102 124.987396 C 215.284988 122.044678 216 116.423828 216 112.496643 C 216 108.569443 215.312439 103.338409 214.472092 100.872131 C 213.63176 98.405853 211.573624 94.72525 209.898483 92.693008 C 208.223328 90.660767 204.867188 87.834396 202.440369 86.412186 C 200.013565 84.989975 195.659195 83.19577 192.763992 82.425049 C 189.007736 81.42511 181.127075 81.02034 165.25 81.011871 L 143 81 L 143 132.5 L 143 184 L 155 184 Z M 171.818497 127 C 167 127 167 127 167 113.354965 C 167 99.70993 167 99.70993 173.911194 100.289337 C 177.754791 100.611572 182.549789 101.75 184.714142 102.854156 C 186.854599 103.946136 189.144562 106.021851 189.802933 107.466843 C 190.461319 108.911835 190.998322 111.760437 190.996262 113.797058 C 190.994202 115.833679 190.115219 118.938828 189.042953 120.697388 C 187.575958 123.103333 185.79924 124.279114 181.865189 125.447388 C 178.989685 126.301331 174.468674 127 171.818497 127 Z M 830.692322 188.559998 C 824.105652 188.559998 818.114685 187.43248 812.719666 185.179138 C 807.324646 182.925797 802.68219 179.773788 798.791931 175.722107 C 794.901733 171.670425 791.901489 166.947205 789.789978 161.552185 C 787.678528 156.157166 786.622009 150.317963 786.622009 144.034607 C 786.622009 137.794586 787.732544 131.978455 789.954041 126.583435 C 792.175598 121.188416 795.279602 116.474777 799.264587 112.444763 C 803.249573 108.414749 807.9245 105.274277 813.288025 103.020935 C 818.651672 100.767593 824.452332 99.640076 830.692322 99.640076 C 837.038757 99.640076 842.887512 100.767593 848.239197 103.020935 C 853.590881 105.274277 858.250916 108.414749 862.219666 112.444763 C 866.188416 116.474777 869.265564 121.188416 871.450134 126.583435 C 873.634827 131.978455 874.727478 137.794586 874.727478 144.034607 C 874.727478 150.317963 873.657654 156.157166 871.520447 161.552185 C 869.383118 166.947205 866.346619 171.670425 862.409119 175.722107 C 858.471497 179.773788 853.819397 182.925797 848.452087 185.179138 C 843.084778 187.43248 837.164612 188.559998 830.692322 188.559998 Z M 896.243103 188.559998 C 892.27948 188.559998 888.824402 188.05484 885.879822 187.046326 C 882.93512 186.037811 880.593567 184.929504 878.854431 183.718201 C 877.115295 182.506897 876.041443 181.611572 875.631775 181.032654 L 882.916931 164.179138 C 883.444397 164.907684 884.184265 165.710846 885.137634 166.587341 C 886.091003 167.463837 887.264343 168.214935 888.657166 168.841248 C 890.049866 169.46756 891.617493 169.780701 893.358337 169.780701 C 895.33197 169.780701 897.104919 169.36377 898.676697 168.532654 C 900.248596 167.701538 901.497131 166.335571 902.424744 164.434998 C 903.352356 162.534424 903.817322 160.006912 903.817322 156.851013 L 903.817322 101.200623 L 923.258728 101.200623 L 923.258728 160.581482 C 923.258728 166.4552 922.159851 171.477905 919.963806 175.651794 C 917.767639 179.825684 914.648376 183.02002 910.604431 185.235779 C 906.560608 187.451538 901.773621 188.559998 896.243103 188.559998 Z M 1044.903198 188.559998 C 1038.576538 188.559998 1032.641235 187.45163 1027.096558 185.233826 C 1021.551941 183.016022 1016.66156 179.90448 1012.424744 175.899841 C 1008.187805 171.895218 1004.874695 167.200989 1002.487244 161.81781 C 1000.099792 156.434631 998.907166 150.572174 998.907166 144.229919 C 998.907166 137.88765 1000.098083 132.004089 1002.479431 126.577576 C 1004.860779 121.151077 1008.160461 116.424194 1012.381775 112.397888 C 1016.603088 108.371613 1021.497009 105.238922 1027.063354 102.999451 C 1032.629639 100.759995 1038.576538 99.640076 1044.903198 99.640076 C 1051.66333 99.640076 1057.502441 100.527466 1062.420776 102.304138 C 1067.339111 104.080826 1070.807983 105.836411 1072.828979 107.569763 L 1064.514526 124.069763 C 1062.907104 122.926834 1060.465698 121.774536 1057.190308 120.614685 C 1053.914917 119.454834 1050.287964 118.874451 1046.309448 118.874451 C 1041.896851 118.874451 1038.047852 119.560318 1034.76062 120.931091 C 1031.473267 122.301849 1028.72644 124.172867 1026.520386 126.544373 C 1024.314453 128.915863 1022.668396 131.605133 1021.580994 134.612732 C 1020.493591 137.620361 1019.950134 140.760895 1019.950134 144.034607 C 1019.950134 147.351654 1020.493591 150.524872 1021.580994 153.554138 C 1022.668396 156.583435 1024.314453 159.28421 1026.520386 161.655701 C 1028.72644 164.027191 1031.473267 165.898224 1034.76062 167.268982 C 1038.047852 168.63974 1041.896851 169.325623 1046.309448 169.325623 C 1050.287964 169.325623 1053.914917 168.741577 1057.190308 167.575623 C 1060.465698 166.409668 1062.907104 165.261047 1064.514526 164.13031 L 1072.828979 180.63031 C 1070.807983 182.363647 1067.339111 184.119263 1062.420776 185.895935 C 1057.502441 187.672607 1051.66333 188.559998 1044.903198 188.559998 Z M 461.567291 186.999451 L 461.567291 101.200623 L 487.362213 101.200623 C 496.505585 101.200623 504.081177 103.031113 510.092682 106.69281 C 516.104187 110.354492 520.604736 115.413864 523.592712 121.870544 C 526.580688 128.32724 528.075134 135.714569 528.075134 144.034607 C 528.075134 152.39798 526.582703 159.80838 523.600525 166.265076 C 520.618286 172.721771 516.121765 177.79071 510.11026 181.47406 C 504.098755 185.15741 496.51709 186.999451 487.362213 186.999451 L 461.567291 186.999451 Z M 527.141541 186.999451 L 561.065369 101.200623 L 580.346619 101.200623 L 614.217712 186.999451 L 593.506775 186.999451 L 587.248962 169.757263 L 554.258728 169.757263 L 547.918884 186.999451 L 527.141541 186.999451 Z M 650.487244 186.999451 L 650.487244 101.200623 L 681.664978 101.200623 C 687.162231 101.200623 692.124512 102.166916 696.55365 104.101013 C 700.982849 106.03511 704.51001 108.954681 707.133728 112.860779 C 709.757446 116.766891 711.069275 121.676987 711.069275 127.589294 C 711.069275 133.459625 709.757446 138.441544 707.133728 142.53656 C 704.51001 146.631577 700.982849 149.745209 696.55365 151.878357 C 692.124512 154.01152 687.162231 155.079529 681.664978 155.079529 L 669.899353 155.079529 L 669.899353 186.999451 L 650.487244 186.999451 Z M 719.235291 186.999451 L 719.235291 101.200623 L 754.239197 101.200623 C 759.202942 101.200623 763.639893 102.241638 767.549744 104.323669 C 771.459595 106.405716 774.54425 109.400177 776.80365 113.309998 C 779.06311 117.219833 780.194275 121.901077 780.194275 127.352966 C 780.194275 132.773712 779.232056 137.199188 777.309509 140.63031 C 775.386902 144.061447 773.080017 146.635345 770.389587 148.34906 C 767.699219 150.062775 765.210022 151.092239 762.920837 151.438904 L 783.762634 186.999451 L 761.932556 186.999451 L 743.350525 152.927185 L 738.674744 152.927185 L 738.674744 186.999451 L 719.235291 186.999451 Z M 934.000916 186.999451 L 934.000916 101.200623 L 988.789978 101.200623 L 988.789978 118.218201 L 953.377869 118.218201 L 953.377869 135.743591 L 988.454041 135.743591 L 988.454041 152.243591 L 953.377869 152.243591 L 953.377869 169.981873 L 988.789978 169.981873 L 988.789978 186.999451 L 934.000916 186.999451 Z M 1098.014526 186.999451 L 1098.014526 118.218201 L 1077.592651 118.218201 L 1077.592651 101.200623 L 1137.866089 101.200623 L 1137.866089 118.218201 L 1117.442261 118.218201 L 1117.442261 186.999451 L 1098.014526 186.999451 Z M 830.692322 170.311951 C 835.438782 170.311951 839.597839 169.142197 843.170837 166.802185 C 846.743835 164.462173 849.532898 161.304443 851.536072 157.327576 C 853.539246 153.350708 854.539978 148.919098 854.539978 144.034607 C 854.539978 139.150116 853.539246 134.730042 851.536072 130.774841 C 849.532898 126.819656 846.743835 123.667633 843.170837 121.31781 C 839.597839 118.967987 835.438782 117.792419 830.692322 117.792419 C 825.988708 117.792419 821.847595 118.967987 818.268494 121.31781 C 814.689392 123.667633 811.892883 126.819656 809.877869 130.774841 C 807.862854 134.730042 806.854431 139.150116 806.854431 144.034607 C 806.854431 148.919098 807.862854 153.350708 809.877869 157.327576 C 811.892883 161.304443 814.689392 164.462173 818.268494 166.802185 C 821.847595 169.142197 825.988708 170.311951 830.692322 170.311951 Z M 480.944244 169.745544 L 485.635651 169.745544 C 490.520142 169.745544 494.569611 168.635376 497.784088 166.413513 C 500.998535 164.19165 503.413116 161.145325 505.026276 157.276794 C 506.639435 153.408264 507.451569 149.038452 507.463776 144.165466 C 507.475281 139.260651 506.686127 134.869843 505.094635 130.995544 C 503.503143 127.121262 501.084564 124.063278 497.842682 121.819763 C 494.600769 119.576233 490.532349 118.454529 485.635651 118.454529 L 480.944244 118.454529 L 480.944244 169.745544 Z M 560.705994 152.739685 L 580.819275 152.739685 L 570.850525 124.606873 L 570.655212 124.606873 L 560.705994 152.739685 Z M 669.899353 139.716248 L 676.276306 139.716248 C 678.904053 139.716248 681.274353 139.335999 683.389587 138.575623 C 685.504822 137.815247 687.1875 136.576263 688.438416 134.858826 C 689.689331 133.141388 690.315369 130.871048 690.315369 128.048279 C 690.315369 125.201797 689.689331 122.942932 688.438416 121.272888 C 687.1875 119.602859 685.504822 118.400116 683.389587 117.665466 C 681.274353 116.930832 678.904053 116.563904 676.276306 116.563904 L 669.899353 116.563904 L 669.899353 139.716248 Z M 738.674744 139.477966 L 747.268494 139.477966 C 750.711487 139.477966 753.735107 138.636566 756.338806 136.950623 C 758.942566 135.264679 760.243103 132.270416 760.243103 127.968201 C 760.243103 123.666672 758.96582 120.690857 756.409119 119.040466 C 753.852417 117.39006 750.852112 116.563904 747.409119 116.563904 L 738.674744 116.563904 L 738.674744 139.477966 Z M 403.953583 101.199997 L 423.258575 101.199997 L 457.123566 187 L 436.38858 187 L 430.14856 169.774994 L 397.128571 169.774994 L 390.823578 187 L 370.02356 187 Z M 403.628571 152.744995 L 423.713562 152.744995 L 413.768585 124.600006 L 413.573578 124.600006 Z M 392.383575 93.009995 L 392.383575 80.660004 L 434.76358 80.660004 L 434.76358 93.009995 Z M 338.593231 187 L 316.646576 187 L 286.096588 101.199997 L 307.995483 101.199997 L 327.619385 162.233978 L 347.278839 101.199997 L 369.178772 101.199997 Z"/>
</svg>
