<?xml version="1.0" encoding="UTF-8"?>
<!-- Generated by Pixelmator Pro 2.4.7 -->
<svg width="128" height="128" viewBox="0 0 128 128" xmlns="http://www.w3.org/2000/svg" xmlns:xlink="http://www.w3.org/1999/xlink">
    <g id="Group">
        <path id="Ellipse-copy" fill="#3f3e67" fill-rule="evenodd" stroke="none" d="M 128 64 C 128 28.653778 99.346222 0 64 0 C 28.653776 0 0 28.653778 0 64 C 0 99.346222 28.653776 128 64 128 C 99.346222 128 128 99.346222 128 64 Z"/>
        <path id="Path-copy" fill="#ffffff" fill-rule="evenodd" stroke="none" d="M 20 42 L 32 42 L 45 75 L 58 42 L 70 42 L 49 92 L 40 92 L 20 42 Z M 73 92 L 73 42 C 73 42 90.948654 42 91 42 C 114.999977 42 114.999977 73 91 73 C 88.869003 73 84 73 84 73 L 84 92 L 73 92 Z M 84 65 C 84 65 86.532021 65 87.640137 65 C 100.120125 65 100.120125 50 87.640137 50 C 87.613434 50 84 50 84 50 L 84 65 Z"/>
    </g>
    <g id="g1">
        <path id="Ellipse" fill="#ffffff" fill-rule="evenodd" stroke="none" visibility="hidden" d="M 128 64 C 128 28.653778 99.346222 0 64 0 C 28.653776 0 0 28.653778 0 64 C 0 99.346222 28.653776 128 64 128 C 99.346222 128 128 99.346222 128 64 Z"/>
        <path id="Path" fill="#3f3e67" fill-rule="evenodd" stroke="none" visibility="hidden" d="M 20 42 L 32 42 L 45 75 L 58 42 L 70 42 L 49 92 L 40 92 L 20 42 Z M 73 92 L 73 42 C 73 42 90.948654 42 91 42 C 114.999977 42 114.999977 73 91 73 C 88.869003 73 84 73 84 73 L 84 92 L 73 92 Z M 84 65 C 84 65 86.532021 65 87.640137 65 C 100.120125 65 100.120125 50 87.640137 50 C 87.613434 50 84 50 84 50 L 84 65 Z"/>
    </g>
</svg>
